<svg xmlns="http://www.w3.org/2000/svg" viewBox="0 0 100 100" fill="none">
  <circle cx="50" cy="50" r="44" stroke="#f59e0b" stroke-width="1.6"/>
  <circle cx="50" cy="50" r="28" stroke="#f59e0b" stroke-width="1" opacity="0.45"/>
  <path d="M50,6 L54,28 L50,50 L46,28 Z" fill="#f59e0b"/>
  <path d="M50,94 L54,72 L50,50 L46,72 Z" fill="#f59e0b"/>
  <path d="M94,50 L72,54 L50,50 L72,46 Z" fill="#f59e0b"/>
  <path d="M6,50 L28,54 L50,50 L28,46 Z" fill="#f59e0b"/>
  <path d="M76,24 L64.8,38.8 L50,50 L61.2,35.2 Z" fill="#f59e0b" opacity="0.85"/>
  <path d="M76,76 L61.2,64.8 L50,50 L64.8,61.2 Z" fill="#f59e0b" opacity="0.85"/>
  <path d="M24,24 L35.2,38.8 L50,50 L38.8,35.2 Z" fill="#f59e0b" opacity="0.85"/>
  <path d="M24,76 L38.8,64.8 L50,50 L35.2,61.2 Z" fill="#f59e0b" opacity="0.85"/>
  <circle cx="50" cy="50" r="11.5" fill="white"/>
  <path d="M50,57 C43,56 41,52 41,46.5 C41,41 44,39 47,39.5 C48.5,40 49.5,42.5 50,44.5 C50.5,42.5 51.5,40 53,39.5 C56,39 59,41 59,46.5 C59,52 57,56 50,57 Z" fill="#c2714f"/>
</svg>
